<?xml version="1.0" encoding="iso-8859-1"?>
<!-- Generator: Adobe Illustrator 19.0.0, SVG Export Plug-In . SVG Version: 6.00 Build 0)  -->
<svg version="1.1" id="Layer_1" xmlns="http://www.w3.org/2000/svg" xmlns:xlink="http://www.w3.org/1999/xlink" x="0px" y="0px"
	 viewBox="0 0 512 512" style="enable-background:new 0 0 512 512;" xml:space="preserve">
<path style="fill:#E44F50;" d="M333.24,211.744l-9.761-148.614H190.568l-11.462,148.484c-40.585,15.685-76.048,43.43-102.866,79.359
	H435.76C409.019,255.146,373.682,227.452,333.24,211.744z"/>
<path style="fill:#DD263D;" d="M333.24,211.744l-9.761-148.614H269.16h-78.592l-3.368,43.623h51.812
	c18.572,0,33.96,14.409,35.176,32.942l4.733,72.049c40.442,15.709,75.779,43.402,102.52,79.23h54.319
	C409.019,255.146,373.682,227.452,333.24,211.744z"/>
<path style="fill:#E44F50;" d="M312.291,9.365H199.711c-20.255,0-36.674,16.419-36.674,36.674v17.091h185.928V46.04
	C348.964,25.784,332.545,9.365,312.291,9.365z"/>
<path style="fill:#DD263D;" d="M312.291,9.365h-44.953c20.255,0,36.674,16.419,36.674,36.674v17.091h44.953V46.04
	C348.964,25.784,332.545,9.365,312.291,9.365z"/>
<path style="fill:#E6E7E8;" d="M251.94,499.047L226.687,295.57c-0.303-2.441,1.601-4.596,4.061-4.596h50.506
	c2.46,0,4.364,2.155,4.061,4.596l-25.253,203.477C259.467,503.831,252.533,503.831,251.94,499.047z"/>
<polygon style="fill:#D1D3D4;" points="233.014,346.555 278.987,346.555 285.884,290.974 226.116,290.974 "/>
<circle cx="226.153" cy="63.131" r="9.365"/>
<path d="M443.266,285.372c-26.888-36.025-61.736-63.623-101.066-80.109l-8.72-132.767h15.484c5.172,0,9.365-4.193,9.365-9.365V46.04
	c0-25.386-20.654-46.04-46.04-46.04H199.71c-25.386,0-46.04,20.654-46.04,46.04v17.091c0,5.172,4.193,9.365,9.365,9.365h17.417
	l-10.236,132.598c-39.505,16.468-74.498,44.125-101.482,80.278c-2.119,2.84-2.455,6.633-0.867,9.8s4.827,5.167,8.371,5.167h141.6
	l24.804,199.862c0.849,6.838,6.466,11.799,13.355,11.799c6.889,0,12.506-4.962,13.355-11.799l24.804-199.862H435.76
	c3.544,0,6.783-2,8.371-5.167C445.719,292.005,445.385,288.212,443.266,285.372z M256,455.726l-19.285-155.387h38.569L256,455.726z
	 M281.253,281.608h-50.505H95.863c24.209-27.583,53.844-48.591,86.619-61.258c3.365-1.301,5.684-4.418,5.961-8.014l11.462-148.486
	c0.412-5.351-3.967-10.086-9.337-10.086h-18.167V46.04c0-15.058,12.251-27.309,27.309-27.309h112.579
	c15.058,0,27.309,12.251,27.309,27.309v7.726h-75.061c-5.172,0-9.365,4.193-9.365,9.365s4.193,9.365,9.365,9.365h50.17
	l9.187,139.862c0.239,3.632,2.561,6.798,5.955,8.117c32.639,12.678,62.159,33.643,86.289,61.134H281.253z"/>
<g>
</g>
<g>
</g>
<g>
</g>
<g>
</g>
<g>
</g>
<g>
</g>
<g>
</g>
<g>
</g>
<g>
</g>
<g>
</g>
<g>
</g>
<g>
</g>
<g>
</g>
<g>
</g>
<g>
</g>
</svg>
