<svg width="35" height="35" viewBox="0 0 64 64" fill="none" xmlns="http://www.w3.org/2000/svg">
<path d="M42 56C42 58.76 37.52 61 32 61C26.48 61 22 58.76 22 56C22 53.55 25.52 51.52 30.16 51.09C30.76 51.03 31.37 51 32 51C33.865 50.9838 35.7209 51.2605 37.5 51.82C40.21 52.72 42 54.26 42 56Z" fill="#b832c7" id="id_118"></path>
<path d="M37.5 51.82C37.28 52.28 37.08 52.74 36.89 53.21C36.77 53.5 36.66 53.78 36.55 54.07L35.88 55.91C35.7368 56.2931 35.4801 56.6232 35.1441 56.8564C34.8081 57.0895 34.4089 57.2144 34 57.2144C33.5911 57.2144 33.1919 57.0895 32.8559 56.8564C32.5199 56.6232 32.2632 56.2931 32.12 55.91L31.45 54.07C31.34 53.78 31.23 53.5 31.12 53.21C30.83 52.49 30.51 51.78 30.16 51.09C30.76 51.03 31.37 51 32 51C33.8649 50.9838 35.7209 51.2605 37.5 51.82V51.82Z" fill="#9a1ca8" id="id_119"></path>
<path d="M52 23C52.0014 26.0157 51.3192 28.9925 50.0046 31.7066C48.69 34.4208 46.7772 36.8015 44.41 38.67C40.2053 41.9561 36.9251 46.2768 34.89 51.21C34.77 51.5 34.66 51.78 34.55 52.07L33.88 53.91C33.7368 54.293 33.4801 54.6232 33.1441 54.8563C32.8081 55.0895 32.4089 55.2144 32 55.2144C31.5911 55.2144 31.1919 55.0895 30.8559 54.8563C30.5199 54.6232 30.2632 54.293 30.12 53.91L29.45 52.07C29.34 51.78 29.23 51.5 29.12 51.21C27.1391 46.3121 23.8999 42.0242 19.73 38.78C17.2549 36.8635 15.2662 34.3908 13.9249 31.5623C12.5837 28.7339 11.9276 25.6292 12.01 22.5C12.1726 17.2624 14.3844 12.2978 18.1695 8.67406C21.9546 5.05029 27.0107 3.05678 32.2504 3.12229C37.4901 3.18781 42.4948 5.3071 46.1881 9.02438C49.8815 12.7417 51.9684 17.76 52 23V23Z" fill="#aa30b8" id="id_120"></path>
<path d="M34 41C42.8366 41 50 33.8366 50 25C50 16.1634 42.8366 9 34 9C25.1634 9 18 16.1634 18 25C18 33.8366 25.1634 41 34 41Z" fill="#881e94" id="id_121"></path>
<path d="M32 39C40.8366 39 48 31.8366 48 23C48 14.1634 40.8366 7 32 7C23.1634 7 16 14.1634 16 23C16 31.8366 23.1634 39 32 39Z" fill="#F1F2F2" id="id_122"></path>
<path d="M41 23H43V19L34 15L25 19V23H27V25V29H25V33H43V29H41V25V23Z" fill="#E0E0E2" id="id_123"></path>
<path d="M41 27V31H23V27H25H29H35H39H41Z" fill="#a420b3" id="id_124"></path>
<path d="M41 17V21H39H35H29H25H23V17L32 13L41 17Z" fill="#9a20a8" id="id_125"></path>
<path d="M29 21H25V27H29V21Z" fill="#8a1b96" id="id_126"></path>
<path d="M35 21H29V27H35V21Z" fill="#a621b5" id="id_127"></path>
<path d="M39 21H35V27H39V21Z" fill="#881f94" id="id_128"></path>
<path d="M35 21H29V23H35V21Z" fill="#a134ad" id="id_129"></path>
<path d="M39 21H35V23H39V21Z" fill="#862691" id="id_130"></path>
<path d="M29 21H25V23H29V21Z" fill="#892694" id="id_131"></path>
<path d="M33 16H31V18H33V16Z" fill="#70187a" id="id_132"></path>
<path d="M31 42H29V44H31V42Z" fill="#7b1c85" id="id_133"></path>
<path d="M35 42H33V44H35V42Z" fill="#7b1d85" id="id_134"></path>
</svg>