<svg xmlns="http://www.w3.org/2000/svg" width="35" height="35" viewBox="0 0 60 60">
<g fill="none" fill-rule="evenodd" transform="translate(14 4)">
<rect width="3" height="25" x="14" y="28" fill="#BC9A67" stroke="#BC9A67" stroke-linecap="round" stroke-linejoin="round" stroke-width="2" id="id_101"></rect>
<path stroke="#89714D" stroke-linecap="square" stroke-linejoin="round" stroke-width="2" d="M11,53 L20,53" id="id_102"></path>
<circle cx="15.5" cy="15.5" r="15.5" fill="#c766ff" stroke="#6a00a8" stroke-linecap="round" stroke-linejoin="round" stroke-width="2" id="id_103"></circle>
<path fill="#ffffff" d="M15.1191406,15.703125 L15.8164062,15.703125 C16.4681022,15.703125 16.9557275,15.5743828 17.2792969,15.3168945 C17.6028662,15.0594063 17.7646484,14.6845728 17.7646484,14.1923828 C17.7646484,13.6956355 17.6290704,13.3287772 17.3579102,13.0917969 C17.0867499,12.8548165 16.6617867,12.7363281 16.0830078,12.7363281 L15.1191406,12.7363281 L15.1191406,15.703125 Z M19.9042969,14.1171875 C19.9042969,15.1927137 19.5682,16.0152966 18.8959961,16.5849609 C18.2237922,17.1546252 17.2679098,17.4394531 16.0283203,17.4394531 L15.1191406,17.4394531 L15.1191406,20.9941406 L13,20.9941406 L13,11 L16.1923828,11 C17.4046285,11 18.3263315,11.2609023 18.9575195,11.7827148 C19.5887076,12.3045273 19.9042969,13.0826771 19.9042969,14.1171875 Z" id="id_104"></path>
</g>
</svg>